<svg height="496pt" viewBox="0 0 496 496" width="496pt" xmlns="http://www.w3.org/2000/svg"><g fill="#f0bc5e"><path d="m128 416h80v48h-80zm0 0"/><path d="m284.945312 130.113281-36.945312-9.410156-36.945312 9.410156-2.894532-39.671875-19.625-33.511718 34.710938-15.042969 24.753906-30.605469 24.761719 30.597656 34.710937 15.042969-19.625 33.511719zm0 0"/><path d="m86.128906 170.113281-22.128906-5.625-22.128906 5.625-1.710938-23.671875-11.625-19.847656 20.59375-8.921875 14.871094-18.390625 14.871094 18.382812 20.59375 8.921876-11.625 19.847656zm0 0"/><path d="m454.128906 170.113281-22.128906-5.625-22.128906 5.625-1.71875-23.671875-11.625-19.847656 20.59375-8.921875 14.878906-18.390625 14.871094 18.382812 20.59375 8.921876-11.625 19.847656zm0 0"/><path d="m171.457031 267.121094-31.6875-39.59375c-11.433593-14.304688-24.960937-26.703125-40.203125-36.863282l-5.871094-3.910156 23.449219-46.890625 7.65625 5.738281c22.0625 16.535157 36.679688 41.726563 40.101563 69.09375zm0 0"/><path d="m324.542969 267.121094 6.554687-52.425782c3.421875-27.367187 18.039063-52.550781 40.101563-69.09375l7.664062-5.753906 23.449219 46.886719-5.871094 3.914063c-15.242187 10.167968-28.777344 22.558593-40.203125 36.855468zm0 0"/></g><path d="m396.945312 288h-297.890624l-32 64h28.945312v144h304v-144h28.945312zm-9.890624 16 16 32h-126.109376l-16-32zm-278.109376 0h126.109376l-16 32h-126.109376zm275.054688 176h-128v-56h-16v56h-128v-128h116.945312l11.054688-22.113281v70.113281h16v-70.113281l11.054688 22.113281h116.945312zm0 0"/><path d="m128 416h48v16h-48zm0 0"/><path d="m128 448h48v16h-48zm0 0"/><path d="m192 448h16v16h-16zm0 0"/><path d="m296 238.480469c0-38.425781 13.542969-75.832031 38.152344-105.359375l-12.296875-10.242188c-26.992188 32.394532-41.855469 73.449219-41.855469 115.601563v33.519531h16zm0 0"/><path d="m336 96h16v16h-16zm0 0"/><path d="m360 64h16v16h-16zm0 0"/><path d="m200 272h16v-33.519531c0-42.160157-14.863281-83.207031-41.847656-115.601563l-12.296875 10.242188c24.601562 29.527344 38.144531 66.933594 38.144531 105.359375zm0 0"/><path d="m144 96h16v16h-16zm0 0"/><path d="m120 64h16v16h-16zm0 0"/><path d="m240 136h16v16h-16zm0 0"/><path d="m240 168h16v104h-16zm0 0"/><path d="m464 216h16v16h-16zm0 0"/><path d="m464 248h16v16h-16zm0 0"/><path d="m480 232h16v16h-16zm0 0"/><path d="m448 232h16v16h-16zm0 0"/><path d="m440 0h16v16h-16zm0 0"/><path d="m440 32h16v16h-16zm0 0"/><path d="m456 16h16v16h-16zm0 0"/><path d="m424 16h16v16h-16zm0 0"/><path d="m16 248h16v16h-16zm0 0"/><path d="m16 280h16v16h-16zm0 0"/><path d="m32 264h16v16h-16zm0 0"/><path d="m0 264h16v16h-16zm0 0"/><path d="m16 0h16v16h-16zm0 0"/><path d="m16 32h16v16h-16zm0 0"/><path d="m32 16h16v16h-16zm0 0"/><path d="m0 16h16v16h-16zm0 0"/></svg>